# xmcd
#
# Track frame offsets: 
#        150
#        19955
#        40222
#        53882
#        68555
#        83582
#        102747
#        124960
#        143255
#        159695
#        176797
#        194305
#
# Disc length: 2851 seconds
#
# Revision: 4
# Processed by: cddbd v1.5.2PL0 Copyright (c) Steve Scherf et al.
# Submitted via: ExactAudioCopy v1.0b4
#
DISCID=a30b210c
DTITLE=Various Artist - Zärtlichkeiten * Folge 3
DYEAR=1990
DGENRE=Schlager
TTITLE0=Drafi Deutscher - Diesmal für immer
TTITLE1=Roy Black - Ich kann dich nur lieben
TTITLE2=Michael Holm - Im Jahr der Liebe
TTITLE3=Elfi Graf - Geben ist das Schönste im Leben
TTITLE4=Wolfgang Lindner-Band - Aber dich gibt's nur einmal für mich
TTITLE5=Peter Orloff - Das Tor zum Garten der Träume
TTITLE6=Howard Carpendale - Nachts, wenn alles schläft
TTITLE7=Andreas Martin - Du bist alles
TTITLE8=Katja Ebstein - Du und ich
TTITLE9=Andy Borg - Die berühmten drei Worte
TTITLE10=Denise - Schenk' mir keine Rosen
TTITLE11=Bernhard Brink - Du entschuldige - ich kenn' dich
EXTD=
EXTT0=
EXTT1=
EXTT2=
EXTT3=
EXTT4=
EXTT5=
EXTT6=
EXTT7=
EXTT8=
EXTT9=
EXTT10=
EXTT11=
PLAYORDER=
